[   0s] CDP targets: 1
[   0s]   page: file:///Users/runner/.comfy-test-cache/desktop/ComfyUI.app/Contents/Resources/desktop-ui/index.html#/welcome | ComfyUI
[   1s] Main page: file:///Users/runner/.comfy-test-cache/desktop/ComfyUI.app/Contents/Resources/desktop-ui/index.html#/welcome | ComfyUI
[   1s] Buttons: ['Get Started']
[   1s]   wizard: COMFY_TEST_GPU=0 platform=darwin preferred=['Apple Silicon', 'MPS', 'M4', 'M3', 'M2', 'M1']
[   2s]   clicked [BTN|Get Started]
[   3s]   url: file:///Users/runner/.comfy-test-cache/desktop/ComfyUI.app/Contents/Resources/desktop-ui/index.html#/welcome -> file:///Users/runner/.comfy-test-cache/desktop/ComfyUI.app/Contents/Resources/desktop-ui/index.html#/install
[   4s]   clicked [BTN|Next]
[  11s]   clicked [BTN|Next]
[  13s]   clicked [BTN|Install]
[  14s]   url: file:///Users/runner/.comfy-test-cache/desktop/ComfyUI.app/Contents/Resources/desktop-ui/index.html#/install -> file:///Users/runner/.comfy-test-cache/desktop/ComfyUI.app/Contents/Resources/desktop-ui/index.html#/server-start
[  57s]   /system_stats up after 55s
[  57s]   app: waiting for backend stability (continuous /system_stats up for 30s)
[  57s]   app: /system_stats up; awaiting 30s of stability
[  87s]   app: backend stable for 30s; proceeding
[  87s]   capturing canvas load...
[  95s]   post: waiting for Cloud upsell
[  96s]   post: clicked Cloud upsell via [button:has-text("Continue Locally"):visible]
[  98s]   post: waiting for Close Templates
[ 107s]   post: Close Templates not found, skipping
[ 107s]   post: pressed Escape (Close Templates fallback)
[ 109s]   post: waiting for Extensions
[ 110s]   post: clicked Extensions via [button[aria-label="Extensions"]:visible]
[ 112s]   ext: node meta = display='HYWM2' publisher='pznodes' version='0.0.8'
[ 115s]   ext: searching "HYWM2"
[ 119s]   ext: clicking HYWM2 by pznodes tile
[ 127s]   ext: tile not found, ending capture
[ 127s] Captured 140 frames
[ 127s] Wrote /Users/runner/work/comfy-gpu-ci/comfy-gpu-ci/comfy-test-logs/HYWM2-2222/dev/macos-desktop/results.json (0 workflow(s), sha=05be3cae4d40)
ffmpeg version 7.1 Copyright (c) 2000-2024 the FFmpeg developers
  built with Apple clang version 13.1.6 (clang-1316.0.21.2.5)
  configuration: --prefix=/Volumes/tempdisk/sw --extra-cflags=-fno-stack-check --arch=arm64 --cc=/usr/bin/clang --enable-gpl --enable-libvmaf --enable-libopenjpeg --enable-libopus --enable-libmp3lame --enable-libx264 --enable-libx265 --enable-libvpx --enable-libwebp --enable-libass --enable-libfreetype --enable-fontconfig --enable-libtheora --enable-libvorbis --enable-libsnappy --enable-libaom --enable-libvidstab --enable-libzimg --enable-libsvtav1 --enable-libharfbuzz --enable-libkvazaar --pkg-config-flags=--static --enable-ffplay --enable-postproc --enable-neon --enable-runtime-cpudetect --disable-indev=qtkit --disable-indev=x11grab_xcb
  libavutil      59. 39.100 / 59. 39.100
  libavcodec     61. 19.100 / 61. 19.100
  libavformat    61.  7.100 / 61.  7.100
  libavdevice    61.  3.100 / 61.  3.100
  libavfilter    10.  4.100 / 10.  4.100
  libswscale      8.  3.100 /  8.  3.100
  libswresample   5.  3.100 /  5.  3.100
  libpostproc    58.  3.100 / 58.  3.100
Input #0, image2, from '/Users/runner/work/comfy-gpu-ci/comfy-gpu-ci/comfy-test-logs/HYWM2-2222/dev/macos-desktop/debug/electron_inspect/frames/frame_%06d.png':
  Duration: 00:00:28.00, start: 0.000000, bitrate: N/A
  Stream #0:0: Video: png, rgb24(pc, gbr/bt709/iec61966-2-1), 1024x653, 5 fps, 5 tbr, 5 tbn
Stream mapping:
  Stream #0:0 -> #0:0 (png (native) -> h264 (libx264))
Press [q] to stop, [?] for help
[libx264 @ 0x141e07af0] using cpu capabilities: ARMv8 NEON
[libx264 @ 0x141e07af0] profile High, level 3.1, 4:2:0, 8-bit
[libx264 @ 0x141e07af0] 264 - core 164 r3190 7ed753b - H.264/MPEG-4 AVC codec - Copyleft 2003-2024 - http://www.videolan.org/x264.html - options: cabac=1 ref=3 deblock=1:0:0 analyse=0x3:0x113 me=hex subme=7 psy=1 psy_rd=1.00:0.00 mixed_ref=1 me_range=16 chroma_me=1 trellis=1 8x8dct=1 cqm=0 deadzone=21,11 fast_pskip=1 chroma_qp_offset=-2 threads=4 lookahead_threads=1 sliced_threads=0 nr=0 decimate=1 interlaced=0 bluray_compat=0 constrained_intra=0 bframes=3 b_pyramid=2 b_adapt=1 b_bias=0 direct=1 weightb=1 open_gop=0 weightp=2 keyint=250 keyint_min=5 scenecut=40 intra_refresh=0 rc_lookahead=40 rc=crf mbtree=1 crf=23.0 qcomp=0.60 qpmin=0 qpmax=69 qpstep=4 ip_ratio=1.40 aq=1:1.00
Output #0, mp4, to '/Users/runner/work/comfy-gpu-ci/comfy-gpu-ci/comfy-test-logs/HYWM2-2222/dev/macos-desktop/debug/electron_inspect/driver.mp4':
  Metadata:
    encoder         : Lavf61.7.100
  Stream #0:0: Video: h264 (avc1 / 0x31637661), yuv420p(tv, unknown/bt709/iec61966-2-1, progressive), 1024x654, q=2-31, 5 fps, 10240 tbn
      Metadata:
        encoder         : Lavc61.19.100 libx264
      Side data:
        cpb: bitrate max/min/avg: 0/0/0 buffer size: 0 vbv_delay: N/A
frame=   83 fps=0.0 q=23.0 size=     256KiB time=00:00:16.20 bitrate= 129.5kbits/s speed=25.8x    
[out#0/mp4 @ 0x600003498300] video:538KiB audio:0KiB subtitle:0KiB other streams:0KiB global headers:0KiB muxing overhead: 0.452554%
frame=  140 fps=0.0 q=-1.0 Lsize=     541KiB time=00:00:27.60 bitrate= 160.5kbits/s speed=36.2x    
[libx264 @ 0x141e07af0] frame I:5     Avg QP: 9.73  size: 39643
[libx264 @ 0x141e07af0] frame P:39    Avg QP:18.05  size:  7190
[libx264 @ 0x141e07af0] frame B:96    Avg QP:21.00  size:   750
[libx264 @ 0x141e07af0] consecutive B-frames:  6.4%  2.9% 10.7% 80.0%
[libx264 @ 0x141e07af0] mb I  I16..4: 48.8% 28.3% 22.9%
[libx264 @ 0x141e07af0] mb P  I16..4:  4.3%  5.6%  5.3%  P16..4:  4.1%  1.7%  1.1%  0.0%  0.0%    skip:77.9%
[libx264 @ 0x141e07af0] mb B  I16..4:  0.1%  0.1%  0.2%  B16..8:  5.2%  0.7%  0.2%  direct: 0.2%  skip:93.3%  L0:52.4% L1:44.8% BI: 2.7%
[libx264 @ 0x141e07af0] 8x8 transform intra:32.6% inter:50.2%
[libx264 @ 0x141e07af0] coded y,uvDC,uvAC intra: 30.0% 9.8% 8.0% inter: 1.3% 0.6% 0.2%
[libx264 @ 0x141e07af0] i16 v,h,dc,p: 63% 35%  1%  1%
[libx264 @ 0x141e07af0] i8 v,h,dc,ddl,ddr,vr,hd,vl,hu: 47% 18% 30%  0%  1%  1%  1%  1%  2%
[libx264 @ 0x141e07af0] i4 v,h,dc,ddl,ddr,vr,hd,vl,hu: 33% 30% 18%  2%  3%  3%  4%  3%  4%
[libx264 @ 0x141e07af0] i8c dc,h,v,p: 85% 10%  5%  1%
[libx264 @ 0x141e07af0] Weighted P-Frames: Y:2.6% UV:2.6%
[libx264 @ 0x141e07af0] ref P L0: 50.5%  4.9% 19.4% 25.3%
[libx264 @ 0x141e07af0] ref B L0: 69.3% 23.0%  7.7%
[libx264 @ 0x141e07af0] ref B L1: 90.9%  9.1%
[libx264 @ 0x141e07af0] kb/s:157.32
[ 128s] Wrote /Users/runner/work/comfy-gpu-ci/comfy-gpu-ci/comfy-test-logs/HYWM2-2222/dev/macos-desktop/debug/electron_inspect/driver.mp4
[ 128s]   videos/system/driver.mp4 placed (no workflows ran)
[ 128s]   removed /Users/runner/work/comfy-gpu-ci/comfy-gpu-ci/comfy-test-logs/HYWM2-2222/dev/macos-desktop/debug/electron_inspect/frames after successful encode
